<svg width="69" height="80" viewBox="0 0 69 80" fill="none" xmlns="http://www.w3.org/2000/svg">
<path d="M48.8966 48.4488C48.8966 48.4488 49.0333 48.3198 49.0333 48.1908C53.4095 44.1921 55.7344 38.9035 55.7344 33.2279C55.7344 21.6187 45.7512 12.2024 33.4431 12.2024C28.7933 12.2024 24.2804 13.4923 20.4512 16.0721C19.7674 16.4591 19.6306 17.362 20.1777 18.007C20.5879 18.6519 21.5452 18.7809 22.229 18.265C25.5112 16.0721 29.4771 14.9112 33.4431 14.9112C44.1101 14.9112 52.8625 23.1666 52.8625 33.2279C52.8625 38.2585 50.6744 42.9022 46.8452 46.385C46.7085 46.514 46.7085 46.514 46.7085 46.6429C44.6571 48.7068 43.2896 51.0286 42.469 53.7374C41.7852 53.3505 40.9647 53.0925 40.1441 53.0925H26.742C25.9215 53.0925 25.1009 53.3505 24.4171 53.7374C23.7333 51.0286 22.229 48.7068 20.1777 46.6429C20.1777 46.514 20.0409 46.514 20.0409 46.385C16.2117 42.9022 14.0236 38.2585 14.0236 33.2279C14.0236 29.4872 15.2544 26.0044 17.4425 22.9086C17.8528 22.2637 17.7161 21.4897 17.0323 20.9738C16.3485 20.5868 15.5279 20.7158 14.9809 21.3607C12.3825 24.8435 11.1517 28.9712 11.1517 33.2279C11.1517 38.9035 13.4766 44.3211 17.8528 48.3198L17.9896 48.4488C20.5879 50.8996 21.9555 54.1244 21.9555 57.6072V58.5101C21.9555 58.5101 21.9555 58.5101 21.9555 58.6391V63.4118C21.9555 63.4118 21.9555 63.4118 21.9555 63.5408V67.0235C21.9555 68.0554 22.3658 69.0873 23.0496 69.8613C23.0496 69.9903 23.0496 69.9903 23.0496 70.1193C23.0496 75.5369 27.6993 79.9226 33.4431 79.9226C39.1869 79.9226 43.8366 75.5369 43.8366 70.1193C43.8366 69.9903 43.8366 69.9903 43.8366 69.8613C44.5204 69.0873 44.9306 68.0554 44.9306 67.0235V57.6072C44.9306 54.1244 46.2982 50.8996 48.8966 48.4488ZM41.922 64.7017L24.8274 62.3798V60.316L41.922 62.6378V64.7017ZM24.9642 67.0235V65.0886L41.922 67.4105C41.7852 68.1844 41.1014 68.8294 40.1441 68.8294H26.742C25.7847 68.8294 24.9642 68.0554 24.9642 67.0235ZM26.742 55.9303H40.1441C41.1014 55.9303 41.922 56.7042 41.922 57.6072V59.8L24.8274 57.4782C24.9642 56.5752 25.7847 55.9303 26.742 55.9303ZM33.4431 77.2138C29.7506 77.2138 26.742 74.763 26.195 71.5382C26.3317 71.5382 26.6052 71.5382 26.742 71.5382H40.1441C40.2809 71.5382 40.5544 71.5382 40.6912 71.5382C40.1441 74.763 37.1355 77.2138 33.4431 77.2138Z" fill="#FF1B1B"/>
<path d="M32.4856 34.3888C32.7591 34.6468 33.1693 34.7758 33.5796 34.7758C33.9899 34.7758 34.2634 34.6468 34.6737 34.3888L46.5715 23.1666C47.1185 22.6507 47.1185 21.7477 46.5715 21.2318C46.0245 20.7158 45.0672 20.7158 44.5201 21.2318L33.5796 31.551L12.6558 11.8154C12.1088 11.2995 11.1515 11.2995 10.6045 11.8154C10.0575 12.3314 10.0575 13.2343 10.6045 13.7503L32.4856 34.3888Z" fill="#FF1B1B"/>
<path d="M68.7261 1.36718C68.7261 1.23819 68.7261 0.980207 68.5894 0.851216C68.4526 0.722225 68.4526 0.593233 68.3159 0.464242C68.1791 0.335251 68.0424 0.206262 67.9056 0.206262C67.7688 0.206262 67.6321 0.0772705 67.3586 0.0772705H60.1105C59.2899 0.0772705 58.6061 0.722225 58.6061 1.49617C58.6061 2.27012 59.2899 2.91507 60.1105 2.91507H63.8029L49.9905 15.9431C49.4434 16.4591 49.4434 17.362 49.9905 17.878C50.264 18.136 50.6743 18.265 51.0845 18.265C51.4948 18.265 51.7683 18.136 52.1786 17.878L65.991 4.84993V7.68773C65.991 8.46167 66.6748 9.10663 67.4953 9.10663C68.3159 9.10663 68.9996 8.46167 68.9996 7.68773L68.7261 1.36718Z" fill="#FF1B1B"/>
<path d="M12.109 51.6736L10.3312 53.3505C9.78414 53.8664 9.78414 54.7694 10.3312 55.2853C10.6047 55.5433 11.015 55.6723 11.4252 55.6723C11.8355 55.6723 12.109 55.5433 12.5193 55.2853L14.2971 53.6085C14.8441 53.0925 14.8441 52.1896 14.2971 51.6736C13.6133 51.1576 12.656 51.1576 12.109 51.6736Z" fill="#FF1B1B"/>
<path d="M6.22845 33.4859C6.22845 32.712 5.54466 32.067 4.72412 32.067H2.2625C1.44196 32.067 0.758179 32.712 0.758179 33.4859C0.758179 34.2599 1.44196 34.9048 2.2625 34.9048H4.72412C5.54466 34.9048 6.22845 34.2599 6.22845 33.4859Z" fill="#FF1B1B"/>
<path d="M33.4426 7.81674C34.2631 7.81674 34.9469 7.17178 34.9469 6.39784V4.076C34.9469 3.30206 34.2631 2.6571 33.4426 2.6571C32.622 2.6571 31.9382 3.30206 31.9382 4.076V6.39784C31.9382 7.30077 32.622 7.81674 33.4426 7.81674Z" fill="#FF1B1B"/>
<path d="M64.6233 32.196H62.1617C61.3411 32.196 60.6573 32.841 60.6573 33.6149C60.6573 34.3889 61.3411 35.0338 62.1617 35.0338H64.6233C65.4438 35.0338 66.1276 34.3889 66.1276 33.6149C66.1276 32.841 65.4438 32.196 64.6233 32.196Z" fill="#FF1B1B"/>
<path d="M54.7773 51.6736C54.2303 51.1576 53.273 51.1576 52.7259 51.6736C52.1789 52.1896 52.1789 53.0925 52.7259 53.6085L54.5038 55.2853C54.7773 55.5433 55.1876 55.6723 55.5978 55.6723C56.0081 55.6723 56.2816 55.5433 56.6919 55.2853C57.2389 54.7694 57.2389 53.8664 56.6919 53.3505L54.7773 51.6736Z" fill="#FF1B1B"/>
<path d="M6.50195 42.7733L4.17709 43.6762C3.4933 43.9342 3.08303 44.8371 3.35655 45.4821C3.63006 45.998 4.17709 46.385 4.72411 46.385C4.86087 46.385 5.13438 46.385 5.27114 46.256L7.596 45.3531C8.27979 45.0951 8.69006 44.1922 8.41654 43.5472C8.00627 42.7733 7.18573 42.5153 6.50195 42.7733Z" fill="#FF1B1B"/>
<path d="M20.9983 9.10662C21.2718 9.62259 21.8188 10.0096 22.3659 10.0096C22.5026 10.0096 22.7761 10.0096 22.9129 9.88057C23.5967 9.62259 24.0069 8.71965 23.7334 8.0747L22.7761 5.88185C22.5026 5.2369 21.5453 4.84993 20.8615 5.10791C20.1777 5.36589 19.7675 6.26882 20.041 6.91378L20.9983 9.10662Z" fill="#FF1B1B"/>
<path d="M4.04042 23.6825L6.36528 24.5855C6.50204 24.7145 6.77555 24.7145 6.91231 24.7145C7.45933 24.7145 8.00636 24.3275 8.27987 23.8115C8.55339 23.1666 8.27987 22.2636 7.45933 22.0057L5.13447 21.1027C4.45069 20.8447 3.49339 21.1027 3.21988 21.8767C2.94636 22.6506 3.21988 23.4246 4.04042 23.6825Z" fill="#FF1B1B"/>
<path d="M43.6996 9.75161C43.8363 9.8806 44.1098 9.8806 44.2466 9.8806C44.7936 9.8806 45.3406 9.49363 45.6141 8.97766L46.5714 6.78482C46.845 6.13986 46.5714 5.23693 45.7509 4.97895C45.0671 4.72096 44.1098 4.97895 43.8363 5.75289L42.879 7.94574C42.6055 8.71968 43.0158 9.49363 43.6996 9.75161Z" fill="#FF1B1B"/>
<path d="M59.8365 24.4566C59.9733 24.4566 60.2468 24.4566 60.3836 24.3276L62.7084 23.4247C63.3922 23.1667 63.8025 22.2637 63.529 21.6188C63.2555 20.9738 62.2982 20.5869 61.6144 20.8448L59.2895 21.7478C58.6057 22.0058 58.1955 22.9087 58.469 23.5537C58.7425 24.0696 59.2895 24.4566 59.8365 24.4566Z" fill="#FF1B1B"/>
<path d="M62.8454 43.4183L60.5206 42.5153C59.8368 42.2573 58.8795 42.5153 58.606 43.2893C58.3325 43.9342 58.606 44.8372 59.4265 45.0951L61.7514 45.9981C61.8882 46.1271 62.1617 46.1271 62.2984 46.1271C62.8454 46.1271 63.3925 45.8691 63.666 45.2241C63.9395 44.4502 63.666 43.6762 62.8454 43.4183Z" fill="#FF1B1B"/>
</svg>
