<svg width="158" height="46" viewBox="0 0 158 46" fill="none" xmlns="http://www.w3.org/2000/svg">
<path d="M6.20158 11.647C9.41782 11.647 12.0251 9.03977 12.0251 5.82352C12.0251 2.60728 9.41782 0 6.20158 0C2.98533 0 0.378052 2.60728 0.378052 5.82352C0.378052 9.03977 2.98533 11.647 6.20158 11.647Z" fill="#FF1B1B"/>
<path d="M23.4453 11.647C26.6616 11.647 29.2689 9.03977 29.2689 5.82352C29.2689 2.60728 26.6616 0 23.4453 0C20.2291 0 17.6218 2.60728 17.6218 5.82352C17.6218 9.03977 20.2291 11.647 23.4453 11.647Z" fill="black"/>
<path d="M6.20167 28.5125C2.78319 28.5125 0 25.7293 0 22.3108C0 18.8923 2.78319 16.1091 6.20167 16.1091C9.62016 16.1091 12.4033 18.8923 12.4033 22.3108C12.4033 25.7293 9.62016 28.5125 6.20167 28.5125ZM6.20167 16.8654C3.19159 16.8654 0.756302 19.3007 0.756302 22.3108C0.756302 25.3209 3.19159 27.7562 6.20167 27.7562C9.21175 27.7562 11.647 25.3209 11.647 22.3108C11.647 19.3007 9.21175 16.8654 6.20167 16.8654Z" fill="black"/>
<path d="M23.4453 28.1344C26.6616 28.1344 29.2689 25.5271 29.2689 22.3108C29.2689 19.0946 26.6616 16.4873 23.4453 16.4873C20.2291 16.4873 17.6218 19.0946 17.6218 22.3108C17.6218 25.5271 20.2291 28.1344 23.4453 28.1344Z" fill="black"/>
<path d="M6.20158 44.6219C9.41782 44.6219 12.0251 42.0146 12.0251 38.7984C12.0251 35.5821 9.41782 32.9749 6.20158 32.9749C2.98533 32.9749 0.378052 35.5821 0.378052 38.7984C0.378052 42.0146 2.98533 44.6219 6.20158 44.6219Z" fill="black"/>
<path d="M23.4454 45C20.027 45 17.2438 42.2168 17.2438 38.7984C17.2438 35.3799 20.027 32.5967 23.4454 32.5967C26.8639 32.5967 29.6471 35.3799 29.6471 38.7984C29.6471 42.2168 26.8639 45 23.4454 45ZM23.4454 33.353C20.4354 33.353 18.0001 35.7883 18.0001 38.7984C18.0001 41.8084 20.4354 44.2437 23.4454 44.2437C26.4555 44.2437 28.8908 41.8084 28.8908 38.7984C28.8908 35.7883 26.4555 33.353 23.4454 33.353Z" fill="#FF1B1B"/>
<path d="M63.56 23H59.456L52.592 12.608V23H48.488V6.152H52.592L59.456 16.592V6.152H63.56V23ZM78.9429 20.024H72.6549L71.6469 23H67.3509L73.4469 6.152H78.1989L84.2949 23H79.9509L78.9429 20.024ZM77.8869 16.856L75.7989 10.688L73.7349 16.856H77.8869ZM94.1662 23.168C92.9342 23.168 91.8302 22.968 90.8542 22.568C89.8782 22.168 89.0942 21.576 88.5022 20.792C87.9262 20.008 87.6222 19.064 87.5902 17.96H91.9582C92.0222 18.584 92.2382 19.064 92.6062 19.4C92.9742 19.72 93.4542 19.88 94.0462 19.88C94.6542 19.88 95.1342 19.744 95.4862 19.472C95.8382 19.184 96.0142 18.792 96.0142 18.296C96.0142 17.88 95.8702 17.536 95.5822 17.264C95.3102 16.992 94.9662 16.768 94.5502 16.592C94.1502 16.416 93.5742 16.216 92.8222 15.992C91.7342 15.656 90.8462 15.32 90.1582 14.984C89.4702 14.648 88.8782 14.152 88.3822 13.496C87.8862 12.84 87.6382 11.984 87.6382 10.928C87.6382 9.36 88.2062 8.136 89.3422 7.256C90.4782 6.36 91.9582 5.912 93.7822 5.912C95.6382 5.912 97.1342 6.36 98.2702 7.256C99.4062 8.136 100.014 9.368 100.094 10.952H95.6542C95.6222 10.408 95.4222 9.984 95.0542 9.68C94.6862 9.36 94.2142 9.2 93.6382 9.2C93.1422 9.2 92.7422 9.336 92.4382 9.608C92.1342 9.864 91.9822 10.24 91.9822 10.736C91.9822 11.28 92.2382 11.704 92.7502 12.008C93.2622 12.312 94.0622 12.64 95.1502 12.992C96.2382 13.36 97.1182 13.712 97.7902 14.048C98.4782 14.384 99.0702 14.872 99.5662 15.512C100.062 16.152 100.31 16.976 100.31 17.984C100.31 18.944 100.062 19.816 99.5662 20.6C99.0862 21.384 98.3822 22.008 97.4542 22.472C96.5262 22.936 95.4302 23.168 94.1662 23.168ZM110.852 23.168C109.62 23.168 108.516 22.968 107.54 22.568C106.564 22.168 105.78 21.576 105.188 20.792C104.612 20.008 104.308 19.064 104.276 17.96H108.644C108.708 18.584 108.924 19.064 109.292 19.4C109.66 19.72 110.14 19.88 110.732 19.88C111.34 19.88 111.82 19.744 112.172 19.472C112.524 19.184 112.7 18.792 112.7 18.296C112.7 17.88 112.556 17.536 112.268 17.264C111.996 16.992 111.652 16.768 111.236 16.592C110.836 16.416 110.26 16.216 109.508 15.992C108.42 15.656 107.532 15.32 106.844 14.984C106.156 14.648 105.564 14.152 105.068 13.496C104.572 12.84 104.324 11.984 104.324 10.928C104.324 9.36 104.892 8.136 106.028 7.256C107.164 6.36 108.644 5.912 110.468 5.912C112.324 5.912 113.82 6.36 114.956 7.256C116.092 8.136 116.7 9.368 116.78 10.952H112.34C112.308 10.408 112.108 9.984 111.74 9.68C111.372 9.36 110.9 9.2 110.324 9.2C109.828 9.2 109.428 9.336 109.124 9.608C108.82 9.864 108.668 10.24 108.668 10.736C108.668 11.28 108.924 11.704 109.436 12.008C109.948 12.312 110.748 12.64 111.836 12.992C112.924 13.36 113.804 13.712 114.476 14.048C115.164 14.384 115.756 14.872 116.252 15.512C116.748 16.152 116.996 16.976 116.996 17.984C116.996 18.944 116.748 19.816 116.252 20.6C115.772 21.384 115.068 22.008 114.14 22.472C113.212 22.936 112.116 23.168 110.852 23.168ZM131.929 20.024H125.641L124.633 23H120.337L126.433 6.152H131.185L137.281 23H132.937L131.929 20.024ZM130.873 16.856L128.785 10.688L126.721 16.856H130.873ZM149.649 23L146.145 16.64H145.161V23H141.057V6.152H147.945C149.273 6.152 150.401 6.384 151.329 6.848C152.273 7.312 152.977 7.952 153.441 8.768C153.905 9.568 154.137 10.464 154.137 11.456C154.137 12.576 153.817 13.576 153.177 14.456C152.553 15.336 151.625 15.96 150.393 16.328L154.281 23H149.649ZM145.161 13.736H147.705C148.457 13.736 149.017 13.552 149.385 13.184C149.769 12.816 149.961 12.296 149.961 11.624C149.961 10.984 149.769 10.48 149.385 10.112C149.017 9.744 148.457 9.56 147.705 9.56H145.161V13.736Z" fill="black"/>
<path d="M54.242 32.2212C54.6727 32.2892 55.0637 32.4649 55.415 32.7482C55.7777 33.0316 56.061 33.3829 56.265 33.8022C56.4803 34.2216 56.588 34.6692 56.588 35.1452C56.588 35.7459 56.435 36.2899 56.129 36.7772C55.823 37.2532 55.3753 37.6329 54.786 37.9162C54.208 38.1882 53.5223 38.3242 52.729 38.3242H48.309V26.4752H52.559C53.3637 26.4752 54.0493 26.6112 54.616 26.8832C55.1827 27.1439 55.6077 27.5009 55.891 27.9542C56.1743 28.4076 56.316 28.9176 56.316 29.4842C56.316 30.1869 56.1233 30.7706 55.738 31.2352C55.364 31.6886 54.8653 32.0172 54.242 32.2212ZM49.856 31.5922H52.457C53.1823 31.5922 53.7433 31.4222 54.14 31.0822C54.5367 30.7422 54.735 30.2719 54.735 29.6712C54.735 29.0706 54.5367 28.6002 54.14 28.2602C53.7433 27.9202 53.171 27.7502 52.423 27.7502H49.856V31.5922ZM52.593 37.0492C53.3637 37.0492 53.9643 36.8679 54.395 36.5052C54.8257 36.1426 55.041 35.6382 55.041 34.9922C55.041 34.3349 54.8143 33.8192 54.361 33.4452C53.9077 33.0599 53.3013 32.8672 52.542 32.8672H49.856V37.0492H52.593ZM66.3338 38.3242L63.5118 33.4792H61.6418V38.3242H60.0948V26.4752H63.9198C64.8151 26.4752 65.5688 26.6282 66.1808 26.9342C66.8041 27.2402 67.2688 27.6539 67.5748 28.1752C67.8808 28.6966 68.0338 29.2916 68.0338 29.9602C68.0338 30.7762 67.7958 31.4959 67.3198 32.1192C66.8551 32.7426 66.1524 33.1562 65.2118 33.3602L68.1868 38.3242H66.3338ZM61.6418 32.2382H63.9198C64.7584 32.2382 65.3874 32.0342 65.8068 31.6262C66.2261 31.2069 66.4358 30.6516 66.4358 29.9602C66.4358 29.2576 66.2261 28.7136 65.8068 28.3282C65.3988 27.9429 64.7698 27.7502 63.9198 27.7502H61.6418V32.2382ZM77.1696 38.4432C76.0702 38.4432 75.0672 38.1882 74.1606 37.6782C73.2539 37.1569 72.5342 36.4372 72.0016 35.5192C71.4802 34.5899 71.2196 33.5472 71.2196 32.3912C71.2196 31.2352 71.4802 30.1982 72.0016 29.2802C72.5342 28.3509 73.2539 27.6312 74.1606 27.1212C75.0672 26.5999 76.0702 26.3392 77.1696 26.3392C78.2802 26.3392 79.2889 26.5999 80.1956 27.1212C81.1022 27.6312 81.8162 28.3452 82.3376 29.2632C82.8589 30.1812 83.1196 31.2239 83.1196 32.3912C83.1196 33.5586 82.8589 34.6012 82.3376 35.5192C81.8162 36.4372 81.1022 37.1569 80.1956 37.6782C79.2889 38.1882 78.2802 38.4432 77.1696 38.4432ZM77.1696 37.1002C77.9969 37.1002 78.7392 36.9076 79.3966 36.5222C80.0652 36.1369 80.5866 35.5872 80.9606 34.8732C81.3459 34.1592 81.5386 33.3319 81.5386 32.3912C81.5386 31.4392 81.3459 30.6119 80.9606 29.9092C80.5866 29.1952 80.0709 28.6456 79.4136 28.2602C78.7562 27.8749 78.0082 27.6822 77.1696 27.6822C76.3309 27.6822 75.5829 27.8749 74.9256 28.2602C74.2682 28.6456 73.7469 29.1952 73.3616 29.9092C72.9876 30.6119 72.8006 31.4392 72.8006 32.3912C72.8006 33.3319 72.9876 34.1592 73.3616 34.8732C73.7469 35.5872 74.2682 36.1369 74.9256 36.5222C75.5942 36.9076 76.3422 37.1002 77.1696 37.1002ZM92.9478 38.3242L88.0688 32.9182V38.3242H86.5218V26.4752H88.0688V31.9662L92.9648 26.4752H94.9198L89.5478 32.4082L94.9708 38.3242H92.9478ZM99.6056 27.7332V31.6942H103.924V32.9692H99.6056V37.0492H104.434V38.3242H98.0586V26.4582H104.434V27.7332H99.6056ZM114.373 38.3242L111.551 33.4792H109.681V38.3242H108.134V26.4752H111.959C112.855 26.4752 113.608 26.6282 114.22 26.9342C114.844 27.2402 115.308 27.6539 115.614 28.1752C115.92 28.6966 116.073 29.2916 116.073 29.9602C116.073 30.7762 115.835 31.4959 115.359 32.1192C114.895 32.7426 114.192 33.1562 113.251 33.3602L116.226 38.3242H114.373ZM109.681 32.2382H111.959C112.798 32.2382 113.427 32.0342 113.846 31.6262C114.266 31.2069 114.475 30.6516 114.475 29.9602C114.475 29.2576 114.266 28.7136 113.846 28.3282C113.438 27.9429 112.809 27.7502 111.959 27.7502H109.681V32.2382ZM126.841 35.6892H121.673L120.721 38.3242H119.089L123.373 26.5432H125.158L129.425 38.3242H127.793L126.841 35.6892ZM126.399 34.4312L124.257 28.4472L122.115 34.4312H126.399ZM141.628 29.9092C141.3 29.2179 140.824 28.6852 140.2 28.3112C139.577 27.9259 138.852 27.7332 138.024 27.7332C137.197 27.7332 136.449 27.9259 135.78 28.3112C135.123 28.6852 134.602 29.2292 134.216 29.9432C133.842 30.6459 133.655 31.4619 133.655 32.3912C133.655 33.3206 133.842 34.1366 134.216 34.8392C134.602 35.5419 135.123 36.0859 135.78 36.4712C136.449 36.8452 137.197 37.0322 138.024 37.0322C139.18 37.0322 140.132 36.6866 140.88 35.9952C141.628 35.3039 142.065 34.3689 142.189 33.1902H137.463V31.9322H143.838V33.1222C143.748 34.0969 143.442 34.9922 142.92 35.8082C142.399 36.6129 141.713 37.2532 140.863 37.7292C140.013 38.1939 139.067 38.4262 138.024 38.4262C136.925 38.4262 135.922 38.1712 135.015 37.6612C134.109 37.1399 133.389 36.4202 132.856 35.5022C132.335 34.5842 132.074 33.5472 132.074 32.3912C132.074 31.2352 132.335 30.1982 132.856 29.2802C133.389 28.3509 134.109 27.6312 135.015 27.1212C135.922 26.5999 136.925 26.3392 138.024 26.3392C139.282 26.3392 140.393 26.6509 141.356 27.2742C142.331 27.8976 143.039 28.7759 143.481 29.9092H141.628ZM148.791 27.7332V31.6942H153.109V32.9692H148.791V37.0492H153.619V38.3242H147.244V26.4582H153.619V27.7332H148.791Z" fill="#FF1B1B"/>
</svg>
