<svg width="89" height="88" viewBox="0 0 89 88" fill="none" xmlns="http://www.w3.org/2000/svg">
<path d="M86.6631 58.196L82.3441 54.674C80.7661 53.387 78.4352 53.624 77.1491 55.202L76.0251 56.581L68.4752 50.388C68.7561 49.797 68.9371 49.149 68.9911 48.474C69.1061 47.052 68.6692 45.634 67.7942 44.583C67.3411 44.039 66.7851 43.6 66.1681 43.284C67.1461 41.69 67.3082 39.691 66.6331 38.283C65.7171 36.371 64.2112 35.664 63.0162 35.357C64.2652 33.582 65.4261 31.021 63.1222 28.253C62.2252 27.175 61.0261 26.538 59.7791 26.369C60.3231 24.787 60.2122 23.059 59.0342 21.583C58.2302 20.576 56.9542 19.915 55.5312 19.77C54.1091 19.626 52.7592 20.011 51.7201 20.851L45.2362 18.703C43.4602 18.116 41.8671 18.197 40.4981 18.947C39.2322 19.641 38.2291 20.877 37.5042 22.632L35.4172 20.869C34.3772 19.99 33.0522 19.568 31.6892 19.685C30.3252 19.8 29.0902 20.436 28.2112 21.476C27.3332 22.516 26.9122 23.84 27.0272 25.203C27.0592 25.582 27.1352 25.95 27.2452 26.304C26.0252 26.492 24.9272 27.1 24.1272 28.052C22.8202 29.606 22.6022 31.719 23.3842 33.462C22.3772 33.727 21.4782 34.29 20.7962 35.104C19.1862 37.025 19.2312 39.805 20.7742 41.68C19.9552 41.982 19.2242 42.49 18.6492 43.179C17.2802 44.819 17.1112 47.086 18.0452 48.883L10.6832 55.013C9.36815 53.619 7.18315 53.444 5.67715 54.673L1.35715 58.195C-0.219849 59.481 -0.457848 61.811 0.829152 63.389L18.9972 85.671C19.6182 86.433 20.5022 86.909 21.4852 87.008C21.6132 87.021 21.7411 87.028 21.8682 87.028C22.7152 87.028 23.5292 86.74 24.1912 86.2L28.5112 82.678C30.0882 81.392 30.3272 79.061 29.0401 77.484L26.7552 74.681L39.1371 64.765C39.7732 64.834 40.3962 64.909 41.0062 64.983C43.0102 65.225 44.9662 65.457 46.8822 65.388L60.0442 76.185L58.9852 77.484C57.6992 79.061 57.9361 81.392 59.5131 82.678L63.8331 86.2C64.4961 86.741 65.3102 87.029 66.1572 87.029C66.2841 87.029 66.4121 87.023 66.5401 87.009C67.5231 86.909 68.4071 86.434 69.0281 85.672L87.1961 63.389C88.4781 61.812 88.2402 59.482 86.6631 58.196ZM41.7782 21.288C42.4812 20.903 43.3372 20.886 44.3962 21.237L49.3002 22.862L43.4952 27.695L39.6721 24.466C40.1871 22.857 40.9072 21.765 41.7782 21.288ZM30.2472 23.198C30.7302 22.626 31.4212 22.331 32.1172 22.331C32.6752 22.331 33.2361 22.52 33.6931 22.908L42.2492 30.135C42.7452 30.554 43.0482 31.145 43.1032 31.798C43.1592 32.452 42.9581 33.085 42.5392 33.582C42.1202 34.078 41.5302 34.381 40.8762 34.436C40.2222 34.489 39.5891 34.291 39.0932 33.871L30.5372 26.644C30.0422 26.225 29.7372 25.635 29.6822 24.981C29.6272 24.327 29.8292 23.694 30.2472 23.198ZM26.1662 29.771C26.5842 29.275 27.1722 28.972 27.8222 28.917C28.4682 28.864 29.1032 29.064 29.5972 29.482L36.6562 35.472C37.6861 36.346 37.8172 37.9 36.9462 38.934C36.5302 39.43 35.9412 39.733 35.2912 39.788C34.6352 39.845 34.0102 39.642 33.5162 39.223L33.1721 38.931L27.9832 34.504C27.8792 34.415 27.7692 34.334 27.6602 34.254L26.4562 33.233C25.4272 32.358 25.2962 30.805 26.1662 29.771ZM22.8392 36.819C23.2542 36.323 23.8402 36.02 24.4872 35.966C24.5562 35.96 24.6252 35.958 24.6932 35.958C25.1912 35.958 25.6652 36.118 26.0712 36.404L31.4722 40.987L31.8852 41.339C32.9161 42.218 33.0462 43.779 32.1762 44.818C31.7612 45.314 31.1752 45.617 30.5282 45.671C29.8932 45.725 29.2772 45.528 28.7892 45.123L25.8302 42.584C25.7572 42.521 25.6792 42.466 25.6022 42.407L23.1312 40.298C22.0992 39.418 21.9682 37.858 22.8392 36.819ZM20.6952 44.89C21.1092 44.394 21.6912 44.092 22.3362 44.038C22.9322 43.988 23.5062 44.167 23.9772 44.525L27.0312 47.131C27.0501 47.147 27.0702 47.161 27.0892 47.176L28.6012 48.473C29.6312 49.357 29.7612 50.925 28.8902 51.967C28.4762 52.463 27.8942 52.765 27.2502 52.819C26.6082 52.871 25.9822 52.67 25.4922 52.25L20.9852 48.383C19.9542 47.5 19.8242 45.932 20.6952 44.89ZM26.8222 80.612L22.5022 84.134C22.2922 84.305 22.0222 84.385 21.7522 84.356C21.4782 84.328 21.2322 84.197 21.0612 83.987L2.89415 61.705C2.53715 61.267 2.60315 60.62 3.04115 60.263L7.36115 56.741C7.55015 56.586 7.78015 56.511 8.00715 56.511C8.30415 56.511 8.60015 56.64 8.80215 56.888L9.49415 57.737C9.49415 57.737 9.49415 57.738 9.49515 57.738C9.49515 57.738 9.49515 57.738 9.49615 57.739L23.8252 75.314C23.8262 75.315 23.8262 75.316 23.8272 75.317C23.8282 75.318 23.8292 75.319 23.8302 75.32L26.9702 79.171C27.3262 79.608 27.2602 80.255 26.8222 80.612ZM41.3232 62.336C40.5242 62.24 39.7052 62.141 38.8612 62.056C38.5142 62.019 38.1661 62.124 37.8941 62.342L25.0662 72.615L12.3882 57.065L19.8072 50.888L23.7562 54.276C24.6822 55.071 25.8362 55.497 27.0432 55.497C27.1852 55.497 27.3282 55.491 27.4712 55.479C28.8322 55.366 30.0632 54.727 30.9392 53.679C32.2592 52.098 32.4622 49.935 31.6392 48.172C32.6442 47.906 33.5412 47.344 34.2222 46.531C35.2042 45.358 35.5672 43.866 35.3542 42.454C35.4082 42.451 35.4622 42.452 35.5162 42.447C36.8792 42.332 38.1132 41.695 38.9892 40.652C39.8612 39.616 40.2462 38.329 40.1772 37.071C40.3391 37.086 40.4981 37.113 40.6622 37.113C40.8082 37.113 40.9552 37.107 41.1021 37.095C42.4661 36.98 43.7012 36.344 44.5792 35.304C45.4571 34.264 45.8792 32.94 45.7642 31.576C45.7082 30.916 45.5282 30.288 45.2422 29.714L53.3742 22.943C53.8572 22.542 54.5462 22.354 55.2612 22.427C55.9641 22.499 56.5952 22.806 56.9502 23.25C57.9742 24.532 57.1712 26.371 55.8492 27.524C55.2992 28.004 55.2372 28.838 55.7112 29.394C56.1842 29.95 57.0172 30.021 57.5792 29.554C58.6222 28.685 60.1582 28.863 61.0722 29.963C62.4052 31.564 61.7481 32.737 60.0431 34.855L59.9282 34.998C59.3422 35.728 59.4632 36.367 59.5872 36.682C59.9312 37.556 60.8152 37.685 61.4612 37.779C62.6202 37.947 63.6292 38.188 64.2281 39.439C64.5832 40.179 64.3292 42.094 62.8702 42.88C62.3162 43.178 62.0471 43.822 62.2221 44.426C62.3971 45.03 62.9651 45.432 63.5971 45.385C64.4141 45.325 65.2231 45.666 65.7451 46.293C66.1781 46.812 66.3921 47.53 66.3331 48.262C66.2751 48.989 65.9511 49.647 65.4451 50.069L52.9592 60.46C49.5182 63.326 45.9011 62.889 41.3232 62.336ZM50.4081 64.834C51.8502 64.398 53.2692 63.672 54.6662 62.509L66.7651 52.436L74.3382 58.648L61.7262 74.118L50.4081 64.834ZM85.1241 61.705L66.9571 83.988C66.7861 84.198 66.5412 84.329 66.2662 84.357C65.9941 84.386 65.7251 84.306 65.5151 84.135L61.1951 80.613C60.7571 80.256 60.6922 79.609 61.0492 79.171L79.2151 56.889C79.5742 56.45 80.2201 56.385 80.6581 56.742L84.9771 60.264C85.4152 60.62 85.4811 61.267 85.1241 61.705ZM41.7212 7.973V1.334C41.7212 0.597 42.3182 0 43.0552 0C43.7922 0 44.3892 0.597 44.3892 1.334V7.973C44.3892 8.71 43.7922 9.307 43.0552 9.307C42.3182 9.307 41.7212 8.709 41.7212 7.973ZM20.5152 8.633C20.1472 7.995 20.3662 7.179 21.0032 6.811C21.6422 6.441 22.4562 6.661 22.8252 7.299L26.1442 13.049C26.5122 13.687 26.2931 14.503 25.6562 14.871C25.4462 14.992 25.2162 15.05 24.9912 15.05C24.5302 15.05 24.0822 14.811 23.8342 14.383L20.5152 8.633ZM5.31115 23.736C5.67915 23.098 6.49315 22.878 7.13315 23.248L12.8832 26.567C13.5212 26.935 13.7392 27.751 13.3712 28.389C13.1232 28.817 12.6762 29.056 12.2142 29.056C11.9882 29.056 11.7592 28.998 11.5492 28.877L5.79915 25.558C5.16215 25.189 4.94415 24.374 5.31115 23.736ZM74.4221 25.472C74.0542 24.834 74.2731 24.019 74.9101 23.65L80.6601 20.33C81.2991 19.961 82.1131 20.18 82.4821 20.818C82.8501 21.456 82.6311 22.271 81.9941 22.64L76.2441 25.96C76.0341 26.081 75.8041 26.139 75.5791 26.139C75.1181 26.139 74.6702 25.9 74.4221 25.472ZM60.4161 11.365L63.7351 5.615C64.1031 4.977 64.9171 4.757 65.5571 5.127C66.1951 5.495 66.4131 6.311 66.0452 6.949L62.7262 12.699C62.4792 13.127 62.0312 13.366 61.5691 13.366C61.3431 13.366 61.1141 13.308 60.9041 13.187C60.2671 12.819 60.0481 12.003 60.4161 11.365Z" fill="#FF1B1B"/>
</svg>
