<svg width="82" height="82" viewBox="0 0 82 82" fill="none" xmlns="http://www.w3.org/2000/svg">
<path d="M41 0C32.891 0 24.964 2.40461 18.2216 6.90974C11.4792 11.4149 6.22415 17.8182 3.12096 25.31C0.0177645 32.8017 -0.794172 41.0455 0.787822 48.9987C2.36982 56.9519 6.27469 64.2574 12.0086 69.9914C17.7426 75.7253 25.0481 79.6302 33.0013 81.2122C40.9545 82.7942 49.1983 81.9822 56.69 78.879C64.1818 75.7758 70.5851 70.5208 75.0903 63.7784C79.5954 57.0359 82 49.109 82 41C81.9881 30.1298 77.6647 19.7081 69.9783 12.0217C62.2918 4.33531 51.8702 0.0118699 41 0ZM17.1495 71.1094C17.1495 64.7838 19.6624 58.7174 24.1352 54.2445C28.608 49.7717 34.6745 47.2589 41 47.2589C47.3255 47.2589 53.392 49.7717 57.8648 54.2445C62.3377 58.7174 64.8505 64.7838 64.8505 71.1094C58.0704 76.5018 49.663 79.4376 41 79.4376C32.337 79.4376 23.9296 76.5018 17.1495 71.1094ZM67.3041 68.9889C66.809 63.6137 64.6825 58.5184 61.2097 54.386C57.7368 50.2536 53.0836 47.2817 47.8739 45.8687C50.9201 44.3237 53.3568 41.7974 54.7911 38.6975C56.2253 35.5976 56.5733 32.1049 55.779 28.7829C54.9847 25.461 53.0943 22.5035 50.413 20.3877C47.7316 18.2719 44.4156 17.1211 41 17.1211C37.5844 17.1211 34.2684 18.2719 31.587 20.3877C28.9057 22.5035 27.0153 25.461 26.221 28.7829C25.4267 32.1049 25.7747 35.5976 27.2089 38.6975C28.6432 41.7974 31.0799 44.3237 34.1261 45.8687C28.9164 47.2817 24.2632 50.2536 20.7903 54.386C17.3175 58.5184 15.191 63.6137 14.696 68.9889C9.07694 63.7154 5.17274 56.8747 3.49006 49.3546C1.80738 41.8345 2.42392 33.9822 5.25966 26.8169C8.0954 19.6516 13.0194 13.504 19.3926 9.17213C25.7658 4.84022 33.294 2.52396 41 2.52396C48.7061 2.52396 56.2342 4.84022 62.6074 9.17213C68.9806 13.504 73.9046 19.6516 76.7404 26.8169C79.5761 33.9822 80.1926 41.8345 78.5099 49.3546C76.8273 56.8747 72.9231 63.7154 67.3041 68.9889ZM41 44.9526C38.5014 44.9526 36.0589 44.2117 33.9814 42.8236C31.9039 41.4354 30.2847 39.4624 29.3285 37.154C28.3724 34.8456 28.1222 32.3055 28.6096 29.8549C29.0971 27.4043 30.3003 25.1533 32.067 23.3866C33.8338 21.6198 36.0848 20.4166 38.5354 19.9291C40.986 19.4417 43.5261 19.6919 45.8345 20.648C48.1429 21.6042 50.1159 23.2234 51.5041 25.3009C52.8922 27.3784 53.6331 29.8209 53.6331 32.3195C53.6297 35.669 52.2977 38.8803 49.9292 41.2487C47.5608 43.6172 44.3495 44.9492 41 44.9526Z" fill="#FF1B1B"/>
</svg>
